<svg width="26" height="26" viewBox="0 0 26 26" fill="none" xmlns="http://www.w3.org/2000/svg">
<path d="M15.4913 14.8492C15.4913 14.8492 17.1286 16.4884 17.1329 16.4908C17.655 17.0169 17.5199 17.9415 17.0248 18.4446L14.7409 20.8246C13.8588 21.7044 12.68 20.4832 13.5363 19.6314L14.9852 18.1815L13.5667 16.7742L15.4913 14.8492ZM10.3992 14.8492C10.3992 14.8492 8.76424 16.4884 8.76424 16.4908C8.23786 17.0169 8.3729 17.9415 8.86245 18.4446L11.1564 20.8246C12.0352 21.7044 13.2141 20.4832 12.3621 19.6314L10.9156 18.1815L12.3231 16.7742L10.3992 14.8492ZM13.0022 8.75099C14.3136 8.75099 15.3776 7.68983 15.3776 6.37216C15.3776 5.06224 14.3138 4 13.0022 4C11.6895 4 10.6234 5.06224 10.6234 6.37216C10.6234 7.68875 11.6884 8.75099 13.0022 8.75099ZM15.5762 13.8978L15.6108 12.2773L17.5858 14.1197C17.7465 14.2726 17.9528 14.345 18.1592 14.345C18.3821 14.345 18.6087 14.2558 18.7736 14.0796C19.0905 13.7385 19.0726 13.2076 18.7334 12.8907C18.7334 12.8907 16.4695 10.4305 16.1439 10.1438C15.5417 9.60969 14.6584 9.30687 13.2253 9.30687H12.7758C11.3416 9.30687 10.4595 9.60969 9.8549 10.1428C9.53055 10.4294 7.26651 12.8907 7.26651 12.8907C6.92858 13.2073 6.90855 13.7385 7.22623 14.0796C7.39143 14.2558 7.6165 14.345 7.84092 14.345C8.04725 14.345 8.25358 14.2726 8.41533 14.1197L10.3895 12.2784L10.4239 13.8987H15.5764V13.8978H15.5762Z" fill="#702283"/>
</svg>
