<svg width="26" height="26" viewBox="0 0 26 26" fill="none" xmlns="http://www.w3.org/2000/svg">
<path d="M8.82798 13.2725C10.4346 13.2725 11.7359 11.9705 11.7359 10.362C11.7359 9.35764 12.0867 8.4405 11.3132 7.9178C10.8495 7.6029 8.80938 7.4541 8.20586 7.4541C7.48883 7.4541 6.55695 8.03837 6.05028 8.46744C5.41855 9.00104 5.91688 9.47115 5.91688 10.362C5.91688 11.9705 7.21754 13.2725 8.82798 13.2725ZM6.80002 10.0772C7.33362 9.97975 7.69663 10.1561 7.69663 10.1561L8.59067 9.72128C8.59067 9.72128 8.1366 10.3787 8.54578 10.1561C9.45329 9.84955 10.4698 9.97782 10.9887 10.0792C11.0066 10.1927 11.0227 10.3088 11.0227 10.43C11.0227 11.6274 10.0722 12.5958 8.89339 12.5958C7.71715 12.5958 6.76539 11.6274 6.76539 10.43C6.7641 10.3088 6.78142 10.192 6.80002 10.0772Z" fill="#702283"/>
<path d="M13.8247 13.7445C13.6631 12.2746 14.3654 11.3876 14.6361 11.1034C14.8862 12.6254 16.1997 13.7933 17.7902 13.7933C19.2974 13.7933 20.5557 12.744 20.8989 11.3395C21.156 11.7987 21.5941 12.737 21.4876 13.7445C24.1608 13.7221 22.8434 10.6673 20.9694 10.3319C20.9559 10.1761 20.9431 10.0196 20.9085 9.86949C20.7975 8.90361 19.933 6.94107 17.4574 7.00136C15.3204 7.05074 14.8535 8.65797 14.7438 9.63796C14.6675 9.87911 14.62 10.1312 14.6027 10.3915C11.8205 10.8764 12.1271 13.6971 13.8247 13.7445ZM16.2869 9.67965C16.2869 9.67965 16.5614 9.77328 16.5614 10.6654C17.0328 10.8309 17.8531 9.27944 17.8531 9.27944V10.5012C18.3777 10.643 20.0202 10.4538 20.0202 10.4538L20.0818 10.507C20.0831 10.5333 20.0895 10.5583 20.0895 10.5852C20.0895 11.8545 19.0582 12.8858 17.7909 12.8858C16.5409 12.8858 15.5237 11.8808 15.4961 10.6353C15.9508 10.4698 16.2869 9.67965 16.2869 9.67965Z" fill="#702283"/>
<path d="M18.5021 14.2145H17.1534H16.0239L13.5605 17.1814L10.8732 13.8804H7.02705L3 18.3006L3.84466 19.1722L6.72818 16.7113L6.79103 18.6328L11.2324 18.5648L11.2446 16.7998L13.0596 18.6649L13.4348 19.1722L13.4893 19.1068L13.5502 19.1683L13.7106 18.8547L15.9027 16.3444L16.0445 17.4636L15.6026 18.4462L20.085 18.3711L19.4898 17.4636L19.6008 16.086L21.5306 18.6719L22.812 18.3544L19.7502 14.2145H18.5021Z" fill="#702283"/>
</svg>
