<svg width="26" height="26" viewBox="0 0 26 26" fill="none" xmlns="http://www.w3.org/2000/svg">
<rect width="26" height="26" fill="white"/>
<path d="M9.77536 17.2026L6.52211 19.01C6.33121 19.1161 6.15964 19.2464 6 19.3884C7.89673 21.0173 10.3452 22 13.0204 22C15.6758 22 18.1086 21.032 20 19.4253C19.8256 19.2753 19.6363 19.1404 19.4265 19.0339L15.9428 17.26C15.4927 17.0308 15.2084 16.5623 15.2084 16.0498V14.6577C15.3063 14.5441 15.4182 14.3983 15.538 14.2261C16.0128 13.543 16.3719 12.7916 16.6209 12.0034C17.0677 11.863 17.3968 11.4427 17.3968 10.9432V9.45721C17.3968 9.13034 17.2541 8.83826 17.0323 8.63376V8.19996C17.0323 8.19996 17.4655 4 13.0208 4C8.57601 4 9.00926 8.19996 9.00926 8.19996V8.63376C8.78708 8.83826 8.64472 9.13034 8.64472 9.45721V10.9432C8.64472 11.3346 8.84674 11.679 9.14915 11.8781C9.51368 13.4944 10.4682 14.6577 10.4682 14.6577V16.0154C10.4678 16.5099 10.202 16.9654 9.77536 17.2026Z" fill="#702283"/>
</svg>
