<svg width="26" height="26" viewBox="0 0 26 26" fill="none" xmlns="http://www.w3.org/2000/svg">
<path d="M15.7658 13.1988C15.054 12.0882 13.8256 11.4165 12.5067 11.4165C11.188 11.4165 9.9596 12.0882 9.24781 13.1988L7.28821 16.2557C6.75154 17.093 6.82647 18.1831 7.47232 18.939C8.11899 19.6949 9.18417 19.9384 10.0951 19.5381L10.0957 19.5375C11.6322 18.8622 13.3815 18.8622 14.9184 19.5381C15.8288 19.9384 16.894 19.6952 17.5407 18.9393C18.1871 18.1834 18.262 17.093 17.7254 16.2557L15.7658 13.1988Z" fill="#702283"/>
<path d="M7.66958 12.9041C8.57039 12.558 8.97048 11.4197 8.56362 10.3628C8.15651 9.30616 7.09649 8.7297 6.19668 9.07638C5.29658 9.42249 4.89707 10.5605 5.30319 11.6177C5.71049 12.674 6.77057 13.2508 7.66958 12.9041Z" fill="#702283"/>
<path d="M11.2076 10.9902C12.381 10.9902 13.3326 9.87293 13.3326 8.49537C13.3326 7.11723 12.381 6 11.2076 6C10.0346 6 9.08296 7.1172 9.08296 8.49537C9.08296 9.87293 10.0346 10.9902 11.2076 10.9902Z" fill="#702283"/>
<path d="M15.1695 11.7319C16.283 12.1019 17.5385 11.3416 17.9731 10.0343C18.4079 8.72681 17.8569 7.36638 16.7441 6.9964C15.6305 6.62642 14.375 7.3867 13.9408 8.6942C13.5062 10.0017 14.0567 11.3619 15.1695 11.7319Z" fill="#702283"/>
<path d="M20.2163 11.3563C19.4402 10.7829 18.2656 11.0554 17.5915 11.9659C16.9182 12.8767 17.0008 14.08 17.7754 14.6533C18.5497 15.227 19.7257 14.9543 20.4001 14.044C21.0734 13.1332 20.9906 11.9297 20.2163 11.3563Z" fill="#702283"/>
</svg>
