<svg width="26" height="26" viewBox="0 0 26 26" fill="none" xmlns="http://www.w3.org/2000/svg">
<path d="M21.0778 16.7996C21.0478 16.7778 18.0841 14.5521 14.7704 11.239C12.2012 8.66917 9.22785 4.95486 9.16998 4.88649C7.98874 3.7045 6.06432 3.7045 4.8816 4.88649C3.69958 6.06924 3.69958 7.99289 4.9214 9.20946C4.95071 9.232 7.90607 11.475 11.2206 14.7888C13.7905 17.3587 16.7736 21.0564 16.83 21.1233C17.4213 21.7147 18.1976 22.01 18.9745 22.01C19.7515 22.01 20.527 21.7147 21.1191 21.1233C22.3004 19.9406 22.3004 18.0169 21.0778 16.7996ZM11.4438 9.8166C11.3431 10.1367 11.1087 10.4974 10.8006 10.8055C10.4925 11.1136 10.1318 11.3488 9.81171 11.4487C9.57952 11.5208 9.38791 11.5186 9.31052 11.4404C9.23387 11.3638 9.23088 11.1677 9.30302 10.94C9.40372 10.6199 9.63817 10.2592 9.94623 9.95108C10.2543 9.64298 10.615 9.4078 10.9351 9.30787C11.0448 9.27332 11.147 9.25602 11.2319 9.25602C11.3236 9.25602 11.3958 9.27631 11.4356 9.31615C11.5137 9.39431 11.5159 9.58592 11.4438 9.8166ZM16.7068 15.0803C16.6061 15.4004 16.3716 15.7611 16.0636 16.0692C15.7555 16.3773 15.394 16.6125 15.0747 16.7124C14.847 16.7846 14.6501 16.7801 14.5742 16.7042C14.4976 16.6275 14.4938 16.4314 14.566 16.2037C14.6667 15.8836 14.9011 15.5229 15.2092 15.2148C15.5173 14.9067 15.8787 14.6715 16.1981 14.5716C16.3078 14.5371 16.4092 14.5205 16.4949 14.5205C16.5866 14.5205 16.6594 14.5401 16.6985 14.5799C16.7752 14.6565 16.7782 14.8527 16.7068 15.0803Z" fill="#702283"/>
</svg>
