<svg width="104" height="28" viewBox="0 0 104 28" fill="none" xmlns="http://www.w3.org/2000/svg">
<path d="M5.68033 6C6.4918 6 7.30328 6.08671 8.02459 6.26012C8.7459 6.43353 9.51229 6.73699 10.3238 7.12717V10.1618C9.55738 9.68497 8.7459 9.33815 7.88934 9.03468C7.03279 8.73121 6.26639 8.60116 5.59016 8.60116C5.0041 8.60116 4.55328 8.68786 4.2377 8.90462C3.92213 9.12139 3.7418 9.42486 3.7418 9.77168C3.7418 9.98844 3.87705 10.2052 4.14754 10.422C4.41803 10.6387 5.13934 11.0289 6.35656 11.6358C8.06967 12.4595 9.28689 13.2399 9.96311 13.9335C10.6393 14.6272 11 15.4942 11 16.4913C11 17.8786 10.5041 18.9624 9.46721 19.7861C8.47541 20.5665 7.07787 21 5.36475 21C4.28279 21 3.29098 20.8699 2.34426 20.6532C1.39754 20.4364 0.631148 20.1329 0.045082 19.8295V16.6647C2.07377 17.7486 3.69672 18.2254 5.0041 18.2254C5.68033 18.2254 6.22131 18.0954 6.62705 17.8786C7.03279 17.6619 7.2582 17.3584 7.2582 16.9682C7.2582 16.7514 7.16803 16.5347 7.03279 16.3613C6.89754 16.1879 6.67213 15.9711 6.35656 15.7977C6.04098 15.5809 5.09426 15.1474 3.51639 14.3671C2.29918 13.8035 1.39754 13.1965 0.811475 12.5462C0.270492 11.896 0 11.1156 0 10.2052C0 8.90462 0.540984 7.90751 1.57787 7.12717C2.61475 6.39017 3.96721 6 5.68033 6Z" fill="black"/>
<path d="M19.1498 6C21.2477 6 22.9174 6.69565 24.159 8.04348C25.4006 9.3913 26 11.3043 26 13.6957V14.2609H15.8532C16.0245 15.5652 16.4954 16.5652 17.2661 17.2609C18.0795 17.9565 19.1498 18.3043 20.5627 18.3043C21.4618 18.3043 22.318 18.1304 23.1743 17.8261C23.9878 17.5217 24.8868 17.0435 25.7431 16.3913V19.2174C24.0734 20.4348 22.0183 21 19.6636 21C17.3945 21 15.5535 20.3043 14.1407 18.913C12.7278 17.5217 12 15.6957 12 13.3913C12 11.1739 12.6422 9.3913 13.9694 8C15.2966 6.6087 17.052 6 19.1498 6ZM22.4465 12C22.3609 10.9565 22.0183 10.1304 21.5046 9.52174C20.9908 8.91304 20.263 8.6087 19.3211 8.6087C18.3792 8.6087 17.6086 8.91304 17.052 9.47826C16.4954 10.0435 16.1101 10.8696 15.9388 12H22.4465Z" fill="black"/>
<path d="M40 6.7478C39.7261 6.57185 39.4979 6.43988 39.2697 6.35191C38.7676 6.13196 38.2199 6 37.6722 6C36.805 6 35.9834 6.30792 35.2531 6.96774C34.5228 7.58358 33.7925 8.6393 33.0622 10.0469H33.0166V6.30792H29V21H33.0166V14.2698C33.0166 13.522 33.1992 12.8182 33.5643 12.0704C33.9295 11.3226 34.4315 10.7507 35.0249 10.3109C35.6183 9.87097 36.2573 9.65103 36.8506 9.65103C37.3527 9.65103 37.9917 9.87097 38.722 10.3109L40 6.7478Z" fill="black"/>
<path d="M64.6881 6C66.3087 6 67.5691 6.52786 68.5595 7.53959C69.5048 8.55132 70 9.91496 70 11.6305V20.956H66.0386V12.0264C66.0386 11.0587 65.8135 10.3109 65.3183 9.78299C64.8682 9.21114 64.2379 8.94721 63.4277 8.94721C62.7974 8.94721 62.2572 9.12317 61.717 9.47507C61.1768 9.82698 60.5916 10.3988 59.9614 11.2346V21H56V6.26393H59.9614V8.33138C60.6817 7.4956 61.4469 6.87977 62.2122 6.52786C62.9775 6.17595 63.7878 6 64.6881 6Z" fill="black"/>
<path d="M83.6262 3H83.9246V6.73427H91V9.54545H83.9246V16.007C83.9246 16.6364 84.1377 17.1399 84.5213 17.5175C84.9049 17.8951 85.4164 18.1049 86.0984 18.1049C86.9508 18.1049 87.9738 17.8112 89.1246 17.1818V20.1189C87.7607 20.7063 86.5246 21 85.3311 21C83.7115 21 82.4754 20.5804 81.5803 19.6993C80.6852 18.8182 80.2164 17.6853 80.2164 16.2168V9.5035H78V8.91608L83.6262 3Z" fill="black"/>
<path d="M92.3553 7L95.9771 14.5149L99.6447 7H104L93.4097 28H89.1003L93.9599 18.3976L88 7H92.3553Z" fill="black"/>
<path d="M47.1288 6C49.2331 6 50.908 6.69565 52.1534 8.04348C53.3988 9.3913 54 11.3043 54 13.6957V14.2609H43.865C44.0368 15.5652 44.5092 16.5652 45.2822 17.2609C46.0982 17.9565 47.1718 18.3043 48.589 18.3043C49.4908 18.3043 50.3497 18.1304 51.2086 17.8261C52.0245 17.5217 52.9264 17.0435 53.7853 16.3913V19.2174C52.1104 20.4348 50.0491 21 47.6871 21C45.411 21 43.5644 20.3043 42.1472 18.913C40.7301 17.5217 40 15.6957 40 13.3913C40 11.1739 40.6442 9.3913 41.9755 8C43.3067 6.6087 45.0245 6 47.1288 6ZM50.4356 12C50.3497 10.9565 50.0061 10.1304 49.4908 9.52174C48.9755 8.91304 48.2454 8.6087 47.3006 8.6087C46.3558 8.6087 45.5828 8.91304 45.0245 9.47826C44.4663 10.0435 44.0798 10.8696 43.908 12H50.4356Z" fill="black"/>
<path d="M73.9798 0C74.5455 0 74.9899 0.215164 75.3939 0.645492C75.798 1.07582 76 1.54918 76 2.15164C76 2.71107 75.798 3.22746 75.4343 3.65779C75.0303 4.08811 74.5859 4.30328 74.0202 4.30328C73.495 4.30328 73.0101 4.08811 72.6061 3.65779C72.202 3.22746 72 2.71107 72 2.15164C72 1.54918 72.202 1.03279 72.6061 0.645492C73.0101 0.215164 73.4545 0 73.9798 0ZM75.7576 21H72.202V6.62705H75.7576V21Z" fill="black"/>
</svg>
