<svg width="108" height="23" viewBox="0 0 108 23" fill="none" xmlns="http://www.w3.org/2000/svg">
<g clip-path="url(#clip0)">
<path d="M13.575 7.30796L12.525 12.8464C12.075 12.7695 11.625 12.7695 11.175 12.7695C10.125 12.7695 9.3 13.0003 8.7 13.4618C8.1 13.9233 7.65 14.6926 7.5 15.7695L6.15 22.7695H0L2.925 7.61565H8.7L8.4 9.15411C9.6 7.92334 11.325 7.30796 13.575 7.30796ZM15.225 7.61565H21.3L18.375 22.7695H12.3L15.225 7.61565ZM16.425 5.53872C15.825 5.00026 15.45 4.30796 15.45 3.38488C15.45 2.38488 15.825 1.61565 16.5 0.92334C17.25 0.307955 18.15 -0.0766602 19.275 -0.0766602C20.325 -0.0766602 21.15 0.154109 21.75 0.692571C22.35 1.23103 22.725 1.92334 22.725 2.76949C22.875 3.92334 22.5 4.76949 21.75 5.38488C21.075 6.00026 20.1 6.38488 18.9 6.38488C17.925 6.38488 17.1 6.07719 16.425 5.53872ZM41.4 2.15411L37.425 22.6926H31.65L31.95 21.308C30.825 22.3849 29.475 23.0003 27.975 23.0003C27 23.0003 26.025 22.6926 25.05 22.1541C24.15 21.6156 23.325 20.7695 22.8 19.7695C22.275 18.7695 21.9 17.4618 21.9 16.0003C21.9 14.3849 22.275 12.9233 22.95 11.5387C23.625 10.1541 24.6 9.15411 25.8 8.38488C27 7.61565 28.275 7.23103 29.7 7.23103C31.65 7.23103 33.075 7.84642 33.9 9.07719L35.25 2.07719H41.4V2.15411ZM28.65 17.4618C29.025 17.9233 29.55 18.0772 30.225 18.0772C31.05 18.0772 31.65 17.7695 32.175 17.1541C32.7 16.5387 32.925 15.6926 32.925 14.6156C32.925 13.9233 32.7 13.308 32.325 12.9233C31.95 12.4618 31.425 12.308 30.75 12.308C29.925 12.308 29.325 12.6156 28.8 13.231C28.275 13.8464 28.05 14.6926 28.05 15.7695C28.05 16.3849 28.275 17.0003 28.65 17.4618ZM57.15 16.6156H46.8C46.95 17.231 47.25 17.6926 47.7 18.0003C48.15 18.308 48.825 18.3849 49.65 18.3849C50.85 18.3849 51.975 18.0003 52.875 17.308L55.425 21.0772C53.625 22.308 51.45 22.9233 48.975 22.9233C47.4 22.9233 45.975 22.6156 44.7 22.0772C43.5 21.5387 42.525 20.6926 41.85 19.6156C41.175 18.5387 40.875 17.308 40.875 15.9233C40.875 14.231 41.25 12.7695 42 11.4618C42.75 10.1541 43.875 9.07719 45.225 8.38488C46.575 7.61565 48.225 7.23103 50.025 7.23103C51.6 7.23103 52.95 7.53872 54.075 8.07719C55.2 8.61565 56.1 9.4618 56.7 10.4618C57.3 11.4618 57.6 12.6156 57.6 13.9233C57.45 14.8464 57.375 15.6926 57.15 16.6156ZM48 12.1541C47.55 12.5387 47.25 13.0003 47.025 13.6156H51.825C51.825 13.0003 51.6 12.4618 51.225 12.1541C50.85 11.7695 50.325 11.6156 49.65 11.6156C49.05 11.5387 48.45 11.7695 48 12.1541ZM71.175 7.30796L70.125 12.8464C69.675 12.7695 69.225 12.7695 68.775 12.7695C67.725 12.7695 66.9 13.0003 66.3 13.4618C65.7 13.9233 65.25 14.6926 65.1 15.7695L63.75 22.7695H57.675L60.6 7.61565H66.375L66.075 9.15411C67.2 7.92334 68.925 7.30796 71.175 7.30796ZM83.475 7.30796L82.425 12.8464C81.975 12.7695 81.525 12.7695 81.075 12.7695C80.025 12.7695 79.2 13.0003 78.6 13.4618C78 13.9233 77.55 14.6926 77.4 15.7695L76.05 22.7695H69.975L72.9 7.61565H78.675L78.375 9.15411C79.5 7.92334 81.225 7.30796 83.475 7.30796ZM101.25 7.61565L98.325 22.7695H92.55L92.85 21.3849C91.725 22.4618 90.375 23.0772 88.875 23.0772C87.9 23.0772 86.925 22.7695 85.95 22.231C85.05 21.6926 84.225 20.8464 83.7 19.8464C83.1 18.7695 82.8 17.5387 82.8 16.0772C82.8 14.4618 83.175 13.0003 83.85 11.6156C84.525 10.308 85.5 9.23103 86.7 8.4618C87.9 7.69257 89.175 7.30796 90.6 7.30796C92.55 7.30796 93.975 7.92334 94.8 9.15411L95.1 7.53872H101.25V7.61565ZM89.55 17.4618C89.925 17.9233 90.45 18.0772 91.125 18.0772C91.95 18.0772 92.55 17.7695 93.075 17.1541C93.6 16.5387 93.825 15.6926 93.825 14.6156C93.825 13.9233 93.6 13.308 93.225 12.9233C92.85 12.5387 92.325 12.308 91.65 12.308C90.825 12.308 90.225 12.6156 89.7 13.231C89.175 13.8464 88.95 14.6926 88.95 15.7695C88.95 16.3849 89.175 17.0003 89.55 17.4618ZM101.775 22.0772C101.175 21.4618 100.875 20.6926 100.875 19.6926C100.875 18.5387 101.25 17.6156 102 16.9233C102.75 16.231 103.65 15.8464 104.7 15.8464C105.675 15.8464 106.5 16.1541 107.1 16.7695C107.7 17.3849 108 18.1541 108 19.1541C108 20.308 107.625 21.231 106.875 21.9233C106.125 22.6156 105.225 23.0003 104.175 23.0003C103.2 23.0003 102.375 22.6926 101.775 22.0772Z" fill="white"/>
</g>
<defs>
<clipPath id="clip0">
<rect width="108" height="23" fill="white"/>
</clipPath>
</defs>
</svg>
