<svg width="331" height="331" viewBox="0 0 331 331" fill="none" xmlns="http://www.w3.org/2000/svg">
<g clip-path="url(#clip0)">
<path d="M183.975 108.779H136.523L112.408 229.991H162.583L173.863 174.047C177.363 156.953 187.476 149.96 204.201 149.96C207.702 149.96 210.813 150.349 215.092 150.737L224.038 106.448C206.535 106.448 191.754 110.722 181.642 121.211L183.975 108.779ZM165.694 0C74.2902 0 0 74.203 0 165.5C0 256.797 74.2902 331 165.694 331C257.099 331 331.389 256.797 331.389 165.5C331 74.203 257.099 0 165.694 0ZM165.694 286.711C98.4054 286.711 43.9518 232.322 43.9518 165.112C43.9518 97.9014 98.4054 43.5117 165.694 43.5117C232.984 43.5117 287.437 97.9014 287.437 165.112C287.437 232.322 232.595 286.711 165.694 286.711Z" fill="white"/>
<path d="M183.975 108.779H136.523L112.408 229.991H162.583L173.863 174.047C177.363 156.953 187.476 149.96 204.201 149.96C207.702 149.96 210.813 150.349 215.092 150.737L224.038 106.448C206.535 106.448 191.754 110.722 181.642 121.211L183.975 108.779ZM165.694 0C74.2902 0 0 74.203 0 165.5C0 256.797 74.2902 331 165.694 331C257.099 331 331.389 256.797 331.389 165.5C331 74.203 257.099 0 165.694 0ZM165.694 286.711C98.4054 286.711 43.9518 232.322 43.9518 165.112C43.9518 97.9014 98.4054 43.5117 165.694 43.5117C232.984 43.5117 287.437 97.9014 287.437 165.112C287.437 232.322 232.595 286.711 165.694 286.711Z" fill="url(#paint0_linear)"/>
<path d="M183.975 108.779H136.523L112.408 229.991H162.583L173.863 174.047C177.363 156.953 187.476 149.96 204.201 149.96C207.702 149.96 210.813 150.349 215.092 150.737L224.038 106.448C206.535 106.448 191.754 110.722 181.642 121.211L183.975 108.779ZM165.694 0C74.2902 0 0 74.203 0 165.5C0 256.797 74.2902 331 165.694 331C257.099 331 331.389 256.797 331.389 165.5C331 74.203 257.099 0 165.694 0ZM165.694 286.711C98.4054 286.711 43.9518 232.322 43.9518 165.112C43.9518 97.9014 98.4054 43.5117 165.694 43.5117C232.984 43.5117 287.437 97.9014 287.437 165.112C287.437 232.322 232.595 286.711 165.694 286.711Z" fill="url(#paint1_linear)"/>
</g>
<defs>
<linearGradient id="paint0_linear" x1="165.694" y1="0" x2="165.694" y2="331" gradientUnits="userSpaceOnUse">
<stop stop-color="#702283"/>
<stop offset="1" stop-color="#702283"/>
</linearGradient>
<linearGradient id="paint1_linear" x1="120.848" y1="110.333" x2="349.706" y2="111.952" gradientUnits="userSpaceOnUse">
<stop stop-color="#702283"/>
<stop offset="1" stop-color="#702283"/>
</linearGradient>
<clipPath id="clip0">
<rect width="331" height="331" fill="white"/>
</clipPath>
</defs>
</svg>
