<svg width="43" height="55" viewBox="0 0 43 55" fill="none" xmlns="http://www.w3.org/2000/svg">
<path d="M23.8721 14.1315H17.7148L14.5857 29.8779H21.0962L22.5599 22.6103C23.0141 20.3897 24.3263 19.4812 26.4965 19.4812C26.9507 19.4812 27.3545 19.5317 27.9096 19.5822L29.0704 13.8286C26.7993 13.8286 24.8815 14.3838 23.5693 15.7465L23.8721 14.1315ZM21.5 0C9.63967 0 0 9.63967 0 21.5C0 33.3603 9.63967 43 21.5 43C33.3603 43 43 33.3603 43 21.5C42.9495 9.63967 33.3603 0 21.5 0ZM21.5 37.2465C12.7688 37.2465 5.70305 30.1808 5.70305 21.4495C5.70305 12.7183 12.7688 5.65258 21.5 5.65258C30.2312 5.65258 37.297 12.7183 37.297 21.4495C37.297 30.1808 30.1808 37.2465 21.5 37.2465Z" fill="white"/>
<path d="M23.8721 14.1315H17.7148L14.5857 29.8779H21.0962L22.5599 22.6103C23.0141 20.3897 24.3263 19.4812 26.4965 19.4812C26.9507 19.4812 27.3545 19.5317 27.9096 19.5822L29.0704 13.8286C26.7993 13.8286 24.8815 14.3838 23.5693 15.7465L23.8721 14.1315ZM21.5 0C9.63967 0 0 9.63967 0 21.5C0 33.3603 9.63967 43 21.5 43C33.3603 43 43 33.3603 43 21.5C42.9495 9.63967 33.3603 0 21.5 0ZM21.5 37.2465C12.7688 37.2465 5.70305 30.1808 5.70305 21.4495C5.70305 12.7183 12.7688 5.65258 21.5 5.65258C30.2312 5.65258 37.297 12.7183 37.297 21.4495C37.297 30.1808 30.1808 37.2465 21.5 37.2465Z" fill="url(#paint0_linear)"/>
<path d="M21 55L16.6699 40L25.3301 40L21 55Z" fill="#702283"/>
<defs>
<linearGradient id="paint0_linear" x1="21.5" y1="0" x2="21.5" y2="43" gradientUnits="userSpaceOnUse">
<stop stop-color="#702283"/>
<stop offset="1" stop-color="#702283"/>
</linearGradient>
</defs>
</svg>
