<svg width="37" height="37" viewBox="0 0 37 37" fill="none" xmlns="http://www.w3.org/2000/svg">
<circle cx="18.5" cy="18.5" r="18.5" fill="#702283"/>
<path d="M21.88 17.224C22.616 17.384 23.1813 17.704 23.576 18.184C23.9813 18.6533 24.184 19.2613 24.184 20.008C24.184 20.968 23.8267 21.7093 23.112 22.232C22.408 22.744 21.3627 23 19.976 23H14.824V11.8H19.656C20.904 11.8 21.8693 12.0507 22.552 12.552C23.2453 13.0533 23.592 13.7627 23.592 14.68C23.592 15.2987 23.4373 15.8267 23.128 16.264C22.8293 16.6907 22.4133 17.0107 21.88 17.224ZM16.008 12.776V16.84H19.576C20.4827 16.84 21.1813 16.6693 21.672 16.328C22.1627 15.976 22.408 15.4693 22.408 14.808C22.408 14.1467 22.1627 13.6453 21.672 13.304C21.1813 12.952 20.4827 12.776 19.576 12.776H16.008ZM19.96 22.024C20.9627 22.024 21.72 21.8533 22.232 21.512C22.744 21.1707 23 20.6373 23 19.912C23 18.5147 21.9867 17.816 19.96 17.816H16.008V22.024H19.96Z" fill="white"/>
</svg>
