<svg width="8" height="13" viewBox="0 0 8 13" fill="none" xmlns="http://www.w3.org/2000/svg">
<path d="M7.73994 11.3273C8.11145 11.736 8.08133 12.3684 7.67267 12.7399C7.26402 13.1114 6.63157 13.0813 6.26006 12.6727L7.73994 11.3273ZM2 6.5L1.26006 7.17267L0.648539 6.5L1.26006 5.82733L2 6.5ZM6.26006 0.327326C6.63157 -0.0813307 7.26402 -0.111448 7.67267 0.260059C8.08133 0.631566 8.11145 1.26401 7.73994 1.67267L6.26006 0.327326ZM6.26006 12.6727L1.26006 7.17267L2.73994 5.82733L7.73994 11.3273L6.26006 12.6727ZM1.26006 5.82733L6.26006 0.327326L7.73994 1.67267L2.73994 7.17267L1.26006 5.82733Z" fill="white"/>
</svg>
