<svg width="35" height="31" viewBox="0 0 35 31" fill="none" xmlns="http://www.w3.org/2000/svg">
<path fill-rule="evenodd" clip-rule="evenodd" d="M27.6532 8.20772C28.119 8.41755 27.9734 9.11217 27.4566 9.11217L10.1632 9.1194C7.84142 9.1194 5.95632 10.9934 5.95632 13.3016V19.3288C5.95632 19.828 5.43228 20.1609 4.97374 19.9583L1.30544 18.3809C0.191849 17.8889 -0.30308 16.5937 0.191849 15.4939L6.56043 1.29776C7.05536 0.190721 8.35819 -0.301297 9.4645 0.190721L27.6532 8.20772ZM10.1562 11.0806H32.2169C33.447 11.0806 34.4441 12.0719 34.4441 13.2947V28.7788C34.4441 30.0016 33.447 30.9929 32.2169 30.9929L10.1562 31.0001C8.92614 31.0001 7.929 30.0089 7.929 28.7861V13.2947C7.929 12.0719 8.92614 11.0806 10.1562 11.0806ZM10.7603 28.1927L31.6201 28.1855V20.7763H10.7603V28.1927ZM10.7603 16.2107H31.6201V13.888H10.7603V16.2107Z" fill="#702283"/>
</svg>
