<svg width="30" height="28" viewBox="0 0 30 28" fill="none" xmlns="http://www.w3.org/2000/svg">
<path d="M7.1925 5.32995L18.8207 2.15595L18.2049 0.911243C17.802 0.102183 16.8193 -0.231922 16.0103 0.17097L5.60059 5.32995H7.1925Z" fill="white"/>
<path d="M22.4298 2.24756C22.2857 2.24756 22.1416 2.26721 21.9975 2.30652L19.2657 3.05334L10.9229 5.32985H20.3925H24.5196L24.0087 3.45623C23.8121 2.72579 23.1505 2.24756 22.4298 2.24756Z" fill="white"/>
<path d="M26.2266 6.47656H25.8532H25.3455H24.8377H20.9628H6.72398H4.85692H3.28466H2.99314H2.01702C1.49949 6.47656 1.03764 6.71568 0.736287 7.09237C0.598714 7.26597 0.493896 7.46578 0.434936 7.68524C0.398905 7.82281 0.375977 7.96694 0.375977 8.11433V8.31087V10.1779V26.3624C0.375977 27.2665 1.1097 28.0002 2.01375 28.0002H26.2233C27.1274 28.0002 27.8611 27.2665 27.8611 26.3624V21.793H18.1425C16.6063 21.793 15.3583 20.545 15.3583 19.0088V17.5086V17.0009V16.4932V15.3664C15.3583 14.613 15.6596 13.9285 16.1477 13.4273C16.5801 12.9818 17.1599 12.6804 17.8084 12.6051C17.9165 12.592 18.0279 12.5855 18.1393 12.5855H26.4984H27.0062H27.5139H27.8611V8.11433C27.8643 7.21028 27.1306 6.47656 26.2266 6.47656Z" fill="white"/>
<path d="M29.0109 14.1507C28.8471 14.0001 28.6539 13.8854 28.4377 13.8101C28.2706 13.7544 28.0938 13.7217 27.9071 13.7217H27.8645H27.8317H27.324H25.493H18.1427C17.2386 13.7217 16.5049 14.4554 16.5049 15.3595V16.175V16.6827V17.1904V19.0051C16.5049 19.9092 17.2386 20.6429 18.1427 20.6429H27.8645H27.9071C28.0938 20.6429 28.2706 20.6101 28.4377 20.5544C28.6539 20.4824 28.8471 20.3645 29.0109 20.2138C29.3385 19.9157 29.5448 19.4833 29.5448 19.0051V15.3595C29.5448 14.8812 29.3385 14.4488 29.0109 14.1507ZM21.5623 17.5082C21.5623 17.9602 21.1955 18.3271 20.7434 18.3271H20.1997C19.7477 18.3271 19.3808 17.9602 19.3808 17.5082V16.9644C19.3808 16.7024 19.502 16.4698 19.6953 16.3224C19.8361 16.2143 20.0097 16.1456 20.1997 16.1456H20.3373H20.7434C21.1955 16.1456 21.5623 16.5124 21.5623 16.9644V17.5082Z" fill="white"/>
</svg>
