<svg width="40" height="17" viewBox="0 0 40 17" fill="none" xmlns="http://www.w3.org/2000/svg">
<path d="M7.30875 2.19172C6.83995 2.76594 6.08987 3.21884 5.33978 3.15414C5.24602 2.37774 5.61325 1.55281 6.04298 1.04329C6.51179 0.452902 7.33219 0.0323501 7.99633 0C8.07447 0.808754 7.76974 1.60133 7.30875 2.19172ZM7.98852 3.3078C6.90246 3.2431 5.97266 3.94672 5.45698 3.94672C4.93348 3.94672 4.14433 3.34015 3.28486 3.35633C2.16754 3.3725 1.12836 4.02759 0.557982 5.07089C-0.614028 7.15747 0.253259 10.2469 1.3862 11.9453C1.94095 12.7864 2.60509 13.7084 3.48019 13.676C4.30841 13.6437 4.63657 13.118 5.63669 13.118C6.64462 13.118 6.93371 13.676 7.80881 13.6598C8.71517 13.6437 9.28554 12.8187 9.84029 11.9776C10.4732 11.0233 10.731 10.0932 10.7466 10.0447C10.731 10.0285 8.99645 9.3411 8.98082 7.27069C8.96519 5.53996 10.3482 4.71503 10.4107 4.66651C9.62933 3.46955 8.41044 3.34015 7.98852 3.3078ZM14.2627 0.962417V13.5709H16.1535V9.26023H18.771C21.1619 9.26023 22.8418 7.56185 22.8418 5.10324C22.8418 2.64462 21.1932 0.962417 18.8335 0.962417H14.2627ZM16.1535 2.61227H18.3335C19.9743 2.61227 20.9119 3.51808 20.9119 5.11132C20.9119 6.70457 19.9743 7.61846 18.3256 7.61846H16.1535V2.61227ZM26.2953 13.6679C27.4829 13.6679 28.5846 13.0452 29.0847 12.0585H29.1238V13.5709H30.874V7.29496C30.874 5.47526 29.4675 4.30257 27.3032 4.30257C25.2952 4.30257 23.8106 5.49144 23.756 7.12512H25.4593C25.5999 6.34872 26.2953 5.8392 27.2485 5.8392C28.4049 5.8392 29.0534 6.39724 29.0534 7.42436V8.11989L26.6938 8.26546C24.4982 8.40295 23.3106 9.33302 23.3106 10.9505C23.3106 12.5842 24.5373 13.6679 26.2953 13.6679ZM26.8032 12.1717C25.7952 12.1717 25.1545 11.6703 25.1545 10.902C25.1545 10.1094 25.7718 9.64843 26.9516 9.57564L29.0534 9.43815V10.1499C29.0534 11.3306 28.0846 12.1717 26.8032 12.1717ZM33.2102 17C35.0541 17 35.9214 16.2721 36.6793 14.0642L40 4.42388H38.0779L35.8511 11.8725H35.812L33.5852 4.42388H31.6084L34.8119 13.6032L34.64 14.1613C34.3509 15.1075 33.8821 15.4715 33.0461 15.4715C32.8976 15.4715 32.6085 15.4553 32.4913 15.4391V16.9515C32.6007 16.9838 33.0695 17 33.2102 17Z" fill="black"/>
</svg>
