<svg width="27" height="17" viewBox="0 0 27 17" fill="none" xmlns="http://www.w3.org/2000/svg">
<path d="M16.9032 2.44434H10.0007V14.8832H16.9032V2.44434Z" fill="#6C6BBD"/>
<path d="M10.4319 8.62811C10.4319 6.11157 11.5823 3.88264 13.4517 2.44462C12.0856 1.3661 10.4319 0.718994 8.56244 0.718994C4.17647 0.718994 0.65332 4.24215 0.65332 8.62811C0.65332 13.0141 4.17647 16.5372 8.56244 16.5372C10.4319 16.5372 12.0856 15.8901 13.4517 14.8116C11.5823 13.3736 10.4319 11.1446 10.4319 8.62811Z" fill="#D32011"/>
<path d="M26.2496 8.62811C26.2496 13.0141 22.7264 16.5372 18.3404 16.5372C16.471 16.5372 14.8173 15.8901 13.4512 14.8116C15.3206 13.3736 16.471 11.1446 16.471 8.62811C16.471 6.11157 15.3206 3.88264 13.4512 2.44462C14.8173 1.3661 16.471 0.718994 18.3404 0.718994C22.7264 0.718994 26.2496 4.24215 26.2496 8.62811Z" fill="#0099DF"/>
</svg>
