<svg width="40" height="13" viewBox="0 0 40 13" fill="none" xmlns="http://www.w3.org/2000/svg">
<path fill-rule="evenodd" clip-rule="evenodd" d="M34.9865 0.96167H27.5085C27.9106 3.45433 30.3228 5.78617 32.9763 5.78617H38.9265C39.0069 5.54494 39.0069 5.22331 39.0069 4.98209C39.0069 2.73065 37.238 0.96167 34.9865 0.96167Z" fill="url(#paint0_linear)"/>
<path fill-rule="evenodd" clip-rule="evenodd" d="M28.1519 6.18823V12.2189H31.7702V9.00252H34.9866C36.7555 9.00252 38.2833 7.7964 38.7658 6.18823H28.1519Z" fill="#4DB45F"/>
<path fill-rule="evenodd" clip-rule="evenodd" d="M15.2865 0.96167V12.2188H18.5028C18.5028 12.2188 19.3069 12.2188 19.709 11.4148C21.88 7.0727 22.5232 5.78617 22.5232 5.78617H22.9253V12.2188H26.5437V0.96167H23.3273C23.3273 0.96167 22.5232 1.04208 22.1212 1.76575C20.2718 5.46454 19.3069 7.39434 19.3069 7.39434H18.9049V0.96167H15.2865Z" fill="#4DB45F"/>
<path fill-rule="evenodd" clip-rule="evenodd" d="M0.0090332 12.2188V0.96167H3.62741C3.62741 0.96167 4.67272 0.96167 5.23557 2.56984C6.68292 6.83148 6.84374 7.39434 6.84374 7.39434C6.84374 7.39434 7.16537 6.34903 8.45191 2.56984C9.01477 0.96167 10.0601 0.96167 10.0601 0.96167H13.6784V12.2188H10.0601V6.18821H9.65803L7.64782 12.2188H6.03966L4.02945 6.18821H3.62741V12.2188H0.0090332Z" fill="#4DB45F"/>
<defs>
<linearGradient id="paint0_linear" x1="27.4878" y1="3.37392" x2="39.0069" y2="3.37392" gradientUnits="userSpaceOnUse">
<stop stop-color="#00B4E6"/>
<stop offset="1" stop-color="#088CCB"/>
</linearGradient>
</defs>
</svg>
