<svg width="37" height="11" viewBox="0 0 37 11" fill="none" xmlns="http://www.w3.org/2000/svg">
<g clip-path="url(#clip0)">
<path d="M13.0959 10.9215L14.9104 0.157227H17.9083L16.0938 10.9215H13.0959Z" fill="#00589F"/>
<path d="M26.9019 0.471429C26.3497 0.314286 25.403 0 24.2196 0C21.2218 0 19.1706 1.49286 19.0917 3.53571C19.0917 5.10714 20.5906 5.97143 21.6951 6.52143C22.8785 7.07143 23.2729 7.38571 23.2729 7.77857C23.2729 8.48571 22.3262 8.8 21.5373 8.8C20.354 8.8 19.6439 8.64286 18.7761 8.25L18.3817 8.09286L17.9083 10.5286C18.6183 10.8429 19.9595 11.0786 21.2218 11.0786C24.3774 11.0786 26.4286 9.58571 26.4286 7.38571C26.4286 6.20714 25.7186 5.26429 23.9041 4.4C22.8785 4.00714 22.2473 3.77143 22.2473 3.22143C22.2473 2.75 22.7996 2.27857 23.983 2.27857C25.0085 2.27857 25.6397 2.43571 26.1919 2.67143L26.5075 2.82857L26.9019 0.471429Z" fill="#00589F"/>
<path d="M34.6332 0.157227H32.3454C31.6354 0.157227 31.0831 0.314369 30.7676 1.10008L26.2708 11.0001H29.4264C29.4264 11.0001 29.9786 9.74294 30.0575 9.42866C30.452 9.42866 33.5287 9.42866 33.8443 9.42866C33.9232 9.82151 34.2388 11.0001 34.2388 11.0001H37L34.6332 0.157227ZM30.9253 7.15008C31.2409 6.52151 32.1087 4.16437 32.1087 4.16437C32.1087 4.16437 32.4243 3.5358 32.5032 3.14294L32.6609 4.0858C32.6609 4.0858 33.2132 6.67866 33.2921 7.22866H30.8464V7.15008H30.9253Z" fill="#00589F"/>
<path d="M10.5714 0.157227L7.57355 7.46437L7.33688 5.97151C6.78464 4.32151 5.04903 2.51437 3.15564 1.57151L5.83794 11.0001H8.99359L13.7271 0.314369H10.5714" fill="#00589F"/>
<path d="M4.89126 0.157227H0V0.314369C3.78678 1.25723 6.23241 3.37866 7.33689 5.97151L6.23241 1.10008C5.99574 0.392941 5.60128 0.157227 4.89126 0.157227Z" fill="#F9A51A"/>
</g>
<defs>
<clipPath id="clip0">
<rect width="37" height="11" fill="white"/>
</clipPath>
</defs>
</svg>
