<svg width="26" height="16" viewBox="0 0 26 16" fill="none" xmlns="http://www.w3.org/2000/svg">
<path d="M16.1296 1.8833H9.27808V14.0932H16.1296V1.8833Z" fill="#FF5F00"/>
<path d="M9.70638 7.95297C9.70638 5.48276 10.8483 3.29486 12.7039 1.88331C11.3479 0.82465 9.70638 0.189453 7.85075 0.189453C3.49715 0.189453 0 3.64775 0 7.95297C0 12.2582 3.49715 15.7165 7.85075 15.7165C9.70638 15.7165 11.3479 15.0813 12.7039 14.0226C10.8483 12.6817 9.70638 10.4232 9.70638 7.95297Z" fill="#EB001B"/>
<path d="M25.4078 7.95297C25.4078 12.2582 21.9106 15.7165 17.557 15.7165C15.7014 15.7165 14.0599 15.0813 12.7039 14.0226C14.5595 12.6111 15.7014 10.4232 15.7014 7.95297C15.7014 5.48276 14.5595 3.29486 12.7039 1.88331C14.0599 0.82465 15.7014 0.189453 17.557 0.189453C21.9106 0.189453 25.4078 3.64775 25.4078 7.95297Z" fill="#F79E1B"/>
</svg>
