<svg width="108" height="23" viewBox="0 0 108 23" xmlns="http://www.w3.org/2000/svg">

  <symbol id="logo">
    <g clip-path="url(#clip0)">
      <path
        d="M13.575 7.30796L12.525 12.8464C12.075 12.7695 11.625 12.7695 11.175 12.7695C10.125 12.7695 9.3 13.0003 8.7 13.4618C8.1 13.9233 7.65 14.6926 7.5 15.7695L6.15 22.7695H0L2.925 7.61565H8.7L8.4 9.15411C9.6 7.92334 11.325 7.30796 13.575 7.30796ZM15.225 7.61565H21.3L18.375 22.7695H12.3L15.225 7.61565ZM16.425 5.53872C15.825 5.00026 15.45 4.30796 15.45 3.38488C15.45 2.38488 15.825 1.61565 16.5 0.92334C17.25 0.307955 18.15 -0.0766602 19.275 -0.0766602C20.325 -0.0766602 21.15 0.154109 21.75 0.692571C22.35 1.23103 22.725 1.92334 22.725 2.76949C22.875 3.92334 22.5 4.76949 21.75 5.38488C21.075 6.00026 20.1 6.38488 18.9 6.38488C17.925 6.38488 17.1 6.07719 16.425 5.53872ZM41.4 2.15411L37.425 22.6926H31.65L31.95 21.308C30.825 22.3849 29.475 23.0003 27.975 23.0003C27 23.0003 26.025 22.6926 25.05 22.1541C24.15 21.6156 23.325 20.7695 22.8 19.7695C22.275 18.7695 21.9 17.4618 21.9 16.0003C21.9 14.3849 22.275 12.9233 22.95 11.5387C23.625 10.1541 24.6 9.15411 25.8 8.38488C27 7.61565 28.275 7.23103 29.7 7.23103C31.65 7.23103 33.075 7.84642 33.9 9.07719L35.25 2.07719H41.4V2.15411ZM28.65 17.4618C29.025 17.9233 29.55 18.0772 30.225 18.0772C31.05 18.0772 31.65 17.7695 32.175 17.1541C32.7 16.5387 32.925 15.6926 32.925 14.6156C32.925 13.9233 32.7 13.308 32.325 12.9233C31.95 12.4618 31.425 12.308 30.75 12.308C29.925 12.308 29.325 12.6156 28.8 13.231C28.275 13.8464 28.05 14.6926 28.05 15.7695C28.05 16.3849 28.275 17.0003 28.65 17.4618ZM57.15 16.6156H46.8C46.95 17.231 47.25 17.6926 47.7 18.0003C48.15 18.308 48.825 18.3849 49.65 18.3849C50.85 18.3849 51.975 18.0003 52.875 17.308L55.425 21.0772C53.625 22.308 51.45 22.9233 48.975 22.9233C47.4 22.9233 45.975 22.6156 44.7 22.0772C43.5 21.5387 42.525 20.6926 41.85 19.6156C41.175 18.5387 40.875 17.308 40.875 15.9233C40.875 14.231 41.25 12.7695 42 11.4618C42.75 10.1541 43.875 9.07719 45.225 8.38488C46.575 7.61565 48.225 7.23103 50.025 7.23103C51.6 7.23103 52.95 7.53872 54.075 8.07719C55.2 8.61565 56.1 9.4618 56.7 10.4618C57.3 11.4618 57.6 12.6156 57.6 13.9233C57.45 14.8464 57.375 15.6926 57.15 16.6156ZM48 12.1541C47.55 12.5387 47.25 13.0003 47.025 13.6156H51.825C51.825 13.0003 51.6 12.4618 51.225 12.1541C50.85 11.7695 50.325 11.6156 49.65 11.6156C49.05 11.5387 48.45 11.7695 48 12.1541ZM71.175 7.30796L70.125 12.8464C69.675 12.7695 69.225 12.7695 68.775 12.7695C67.725 12.7695 66.9 13.0003 66.3 13.4618C65.7 13.9233 65.25 14.6926 65.1 15.7695L63.75 22.7695H57.675L60.6 7.61565H66.375L66.075 9.15411C67.2 7.92334 68.925 7.30796 71.175 7.30796ZM83.475 7.30796L82.425 12.8464C81.975 12.7695 81.525 12.7695 81.075 12.7695C80.025 12.7695 79.2 13.0003 78.6 13.4618C78 13.9233 77.55 14.6926 77.4 15.7695L76.05 22.7695H69.975L72.9 7.61565H78.675L78.375 9.15411C79.5 7.92334 81.225 7.30796 83.475 7.30796ZM101.25 7.61565L98.325 22.7695H92.55L92.85 21.3849C91.725 22.4618 90.375 23.0772 88.875 23.0772C87.9 23.0772 86.925 22.7695 85.95 22.231C85.05 21.6926 84.225 20.8464 83.7 19.8464C83.1 18.7695 82.8 17.5387 82.8 16.0772C82.8 14.4618 83.175 13.0003 83.85 11.6156C84.525 10.308 85.5 9.23103 86.7 8.4618C87.9 7.69257 89.175 7.30796 90.6 7.30796C92.55 7.30796 93.975 7.92334 94.8 9.15411L95.1 7.53872H101.25V7.61565ZM89.55 17.4618C89.925 17.9233 90.45 18.0772 91.125 18.0772C91.95 18.0772 92.55 17.7695 93.075 17.1541C93.6 16.5387 93.825 15.6926 93.825 14.6156C93.825 13.9233 93.6 13.308 93.225 12.9233C92.85 12.5387 92.325 12.308 91.65 12.308C90.825 12.308 90.225 12.6156 89.7 13.231C89.175 13.8464 88.95 14.6926 88.95 15.7695C88.95 16.3849 89.175 17.0003 89.55 17.4618ZM101.775 22.0772C101.175 21.4618 100.875 20.6926 100.875 19.6926C100.875 18.5387 101.25 17.6156 102 16.9233C102.75 16.231 103.65 15.8464 104.7 15.8464C105.675 15.8464 106.5 16.1541 107.1 16.7695C107.7 17.3849 108 18.1541 108 19.1541C108 20.308 107.625 21.231 106.875 21.9233C106.125 22.6156 105.225 23.0003 104.175 23.0003C103.2 23.0003 102.375 22.6926 101.775 22.0772Z"/>
    </g>
    <defs>
      <clipPath id="clip0">
        <rect width="108" height="23"/>
      </clipPath>
    </defs>
  </symbol>

  <symbol id="calendar">
    <rect x="5" y="6" width="16" height="16" rx="3" fill="#2F80ED"/>
    <rect x="9" y="5" width="1" height="2" fill="#2F80ED"/>
    <rect x="16" y="5" width="1" height="2" fill="#2F80ED"/>
    <rect x="5" y="9" width="16" height="1" fill="white"/>
    <rect x="8" y="12" width="2" height="2" fill="white"/>
    <rect x="12" y="12" width="2" height="2" fill="white"/>
    <rect x="16" y="12" width="2" height="2" fill="white"/>
  </symbol>

  <symbol id="clock">
    <circle cx="13" cy="13" r="8" fill="#2F80ED"/>
    <path d="M13 9V13H17.5" stroke="white"/>
  </symbol>

  <symbol id="arrow">
    <path d="M1 1L5.50324 5.09385L10.0065 1" stroke="#2F80ED" stroke-width="1.63754" stroke-linecap="round"/>
  </symbol>

  <symbol id="insta">
    <path
      d="M13.9905 0.875H6.8121C3.50883 0.875 0.830078 3.5688 0.830078 6.89062V14.1094C0.830078 17.4312 3.50883 20.125 6.8121 20.125H13.9905C17.2938 20.125 19.9725 17.4312 19.9725 14.1094V6.89062C19.9725 3.5688 17.2938 0.875 13.9905 0.875ZM18.1779 14.1094C18.1779 16.4314 16.2996 18.3203 13.9905 18.3203H6.8121C4.50304 18.3203 2.62468 16.4314 2.62468 14.1094V6.89062C2.62468 4.56859 4.50304 2.67969 6.8121 2.67969H13.9905C16.2996 2.67969 18.1779 4.56859 18.1779 6.89062V14.1094Z"
      />
    <path
      d="M10.4013 5.6875C7.75848 5.6875 5.61572 7.8423 5.61572 10.5C5.61572 13.1577 7.75848 15.3125 10.4013 15.3125C13.0442 15.3125 15.187 13.1577 15.187 10.5C15.187 7.8423 13.0442 5.6875 10.4013 5.6875ZM10.4013 13.5078C8.75269 13.5078 7.41033 12.1579 7.41033 10.5C7.41033 8.84089 8.75269 7.49219 10.4013 7.49219C12.05 7.49219 13.3923 8.84089 13.3923 10.5C13.3923 12.1579 12.05 13.5078 10.4013 13.5078Z"
      />
    <path
      d="M15.5469 5.96783C15.899 5.96783 16.1845 5.68073 16.1845 5.32657C16.1845 4.97241 15.899 4.6853 15.5469 4.6853C15.1947 4.6853 14.9092 4.97241 14.9092 5.32657C14.9092 5.68073 15.1947 5.96783 15.5469 5.96783Z"
      />
  </symbol>

  <symbol id="vk">
    <path
      d="M19.8407 10.3958C19.7893 10.3061 19.471 9.58582 17.9395 8.10547C16.3362 6.55533 16.5516 6.80704 18.4827 4.1267C19.6589 2.49432 20.1291 1.49744 19.9819 1.07128C19.8419 0.665054 18.9769 0.772218 18.9769 0.772218L16.1005 0.789663C16.1005 0.789663 15.8875 0.759757 15.7284 0.858198C15.574 0.955393 15.4747 1.17969 15.4747 1.17969C15.4747 1.17969 15.0189 2.44323 14.4111 3.51736C13.1296 5.784 12.6163 5.90362 12.4069 5.76281C11.92 5.43509 12.042 4.44445 12.042 3.74165C12.042 1.5448 12.3615 0.628917 11.4186 0.39216C11.1051 0.313656 10.8754 0.26132 10.075 0.252598C9.04838 0.241383 8.17853 0.256336 7.68677 0.5068C7.35893 0.673777 7.10647 1.04636 7.26082 1.06754C7.45106 1.09371 7.8818 1.18841 8.11033 1.5124C8.40586 1.92984 8.39509 2.86939 8.39509 2.86939C8.39509 2.86939 8.565 5.45503 7.99906 5.77652C7.6102 5.99708 7.07776 5.54724 5.93511 3.48994C5.35002 2.437 4.90732 1.2719 4.90732 1.2719C4.90732 1.2719 4.82237 1.05508 4.67042 0.939194C4.48616 0.798386 4.22772 0.753527 4.22772 0.753527L1.49254 0.770972C1.49254 0.770972 1.08214 0.783433 0.931381 0.969101C0.797374 1.13483 0.920613 1.47626 0.920613 1.47626C0.920613 1.47626 3.06233 6.69365 5.48642 9.32414C7.7107 11.7353 10.2353 11.5771 10.2353 11.5771H11.3791C11.3791 11.5771 11.7249 11.5372 11.9008 11.3391C12.0635 11.1571 12.0576 10.8157 12.0576 10.8157C12.0576 10.8157 12.0348 9.21698 12.7479 8.98147C13.4503 8.7497 14.3524 10.5266 15.3084 11.2107C16.0311 11.7279 16.5803 11.6145 16.5803 11.6145L19.1372 11.5771C19.1372 11.5771 20.4749 11.4911 19.8407 10.3958Z"
      />
  </symbol>

  <symbol id="fb">
    <path
      d="M6.65279 7.21875V4.59375C6.65279 3.86925 7.23751 3.28125 7.95796 3.28125H9.26313V0H6.65279C4.49013 0 2.73729 1.76269 2.73729 3.9375V7.21875H0.126953V10.5H2.73729V21H6.65279V10.5H9.26313L10.5683 7.21875H6.65279Z"
      />
  </symbol>

  <symbol id="serenity">
      <path d="M5.68033 6C6.4918 6 7.30328 6.08671 8.02459 6.26012C8.7459 6.43353 9.51229 6.73699 10.3238 7.12717V10.1618C9.55738 9.68497 8.7459 9.33815 7.88934 9.03468C7.03279 8.73121 6.26639 8.60116 5.59016 8.60116C5.0041 8.60116 4.55328 8.68786 4.2377 8.90462C3.92213 9.12139 3.7418 9.42486 3.7418 9.77168C3.7418 9.98844 3.87705 10.2052 4.14754 10.422C4.41803 10.6387 5.13934 11.0289 6.35656 11.6358C8.06967 12.4595 9.28689 13.2399 9.96311 13.9335C10.6393 14.6272 11 15.4942 11 16.4913C11 17.8786 10.5041 18.9624 9.46721 19.7861C8.47541 20.5665 7.07787 21 5.36475 21C4.28279 21 3.29098 20.8699 2.34426 20.6532C1.39754 20.4364 0.631148 20.1329 0.045082 19.8295V16.6647C2.07377 17.7486 3.69672 18.2254 5.0041 18.2254C5.68033 18.2254 6.22131 18.0954 6.62705 17.8786C7.03279 17.6619 7.2582 17.3584 7.2582 16.9682C7.2582 16.7514 7.16803 16.5347 7.03279 16.3613C6.89754 16.1879 6.67213 15.9711 6.35656 15.7977C6.04098 15.5809 5.09426 15.1474 3.51639 14.3671C2.29918 13.8035 1.39754 13.1965 0.811475 12.5462C0.270492 11.896 0 11.1156 0 10.2052C0 8.90462 0.540984 7.90751 1.57787 7.12717C2.61475 6.39017 3.96721 6 5.68033 6Z" fill="black"/>
      <path d="M19.1498 6C21.2477 6 22.9174 6.69565 24.159 8.04348C25.4006 9.3913 26 11.3043 26 13.6957V14.2609H15.8532C16.0245 15.5652 16.4954 16.5652 17.2661 17.2609C18.0795 17.9565 19.1498 18.3043 20.5627 18.3043C21.4618 18.3043 22.318 18.1304 23.1743 17.8261C23.9878 17.5217 24.8868 17.0435 25.7431 16.3913V19.2174C24.0734 20.4348 22.0183 21 19.6636 21C17.3945 21 15.5535 20.3043 14.1407 18.913C12.7278 17.5217 12 15.6957 12 13.3913C12 11.1739 12.6422 9.3913 13.9694 8C15.2966 6.6087 17.052 6 19.1498 6ZM22.4465 12C22.3609 10.9565 22.0183 10.1304 21.5046 9.52174C20.9908 8.91304 20.263 8.6087 19.3211 8.6087C18.3792 8.6087 17.6086 8.91304 17.052 9.47826C16.4954 10.0435 16.1101 10.8696 15.9388 12H22.4465Z" fill="black"/>
      <path d="M40 6.7478C39.7261 6.57185 39.4979 6.43988 39.2697 6.35191C38.7676 6.13196 38.2199 6 37.6722 6C36.805 6 35.9834 6.30792 35.2531 6.96774C34.5228 7.58358 33.7925 8.6393 33.0622 10.0469H33.0166V6.30792H29V21H33.0166V14.2698C33.0166 13.522 33.1992 12.8182 33.5643 12.0704C33.9295 11.3226 34.4315 10.7507 35.0249 10.3109C35.6183 9.87097 36.2573 9.65103 36.8506 9.65103C37.3527 9.65103 37.9917 9.87097 38.722 10.3109L40 6.7478Z" fill="black"/>
      <path d="M64.6881 6C66.3087 6 67.5691 6.52786 68.5595 7.53959C69.5048 8.55132 70 9.91496 70 11.6305V20.956H66.0386V12.0264C66.0386 11.0587 65.8135 10.3109 65.3183 9.78299C64.8682 9.21114 64.2379 8.94721 63.4277 8.94721C62.7974 8.94721 62.2572 9.12317 61.717 9.47507C61.1768 9.82698 60.5916 10.3988 59.9614 11.2346V21H56V6.26393H59.9614V8.33138C60.6817 7.4956 61.4469 6.87977 62.2122 6.52786C62.9775 6.17595 63.7878 6 64.6881 6Z" fill="black"/>
      <path d="M83.6262 3H83.9246V6.73427H91V9.54545H83.9246V16.007C83.9246 16.6364 84.1377 17.1399 84.5213 17.5175C84.9049 17.8951 85.4164 18.1049 86.0984 18.1049C86.9508 18.1049 87.9738 17.8112 89.1246 17.1818V20.1189C87.7607 20.7063 86.5246 21 85.3311 21C83.7115 21 82.4754 20.5804 81.5803 19.6993C80.6852 18.8182 80.2164 17.6853 80.2164 16.2168V9.5035H78V8.91608L83.6262 3Z" fill="black"/>
      <path d="M92.3553 7L95.9771 14.5149L99.6447 7H104L93.4097 28H89.1003L93.9599 18.3976L88 7H92.3553Z" fill="black"/>
      <path d="M47.1288 6C49.2331 6 50.908 6.69565 52.1534 8.04348C53.3988 9.3913 54 11.3043 54 13.6957V14.2609H43.865C44.0368 15.5652 44.5092 16.5652 45.2822 17.2609C46.0982 17.9565 47.1718 18.3043 48.589 18.3043C49.4908 18.3043 50.3497 18.1304 51.2086 17.8261C52.0245 17.5217 52.9264 17.0435 53.7853 16.3913V19.2174C52.1104 20.4348 50.0491 21 47.6871 21C45.411 21 43.5644 20.3043 42.1472 18.913C40.7301 17.5217 40 15.6957 40 13.3913C40 11.1739 40.6442 9.3913 41.9755 8C43.3067 6.6087 45.0245 6 47.1288 6ZM50.4356 12C50.3497 10.9565 50.0061 10.1304 49.4908 9.52174C48.9755 8.91304 48.2454 8.6087 47.3006 8.6087C46.3558 8.6087 45.5828 8.91304 45.0245 9.47826C44.4663 10.0435 44.0798 10.8696 43.908 12H50.4356Z" fill="black"/>
      <path d="M73.9798 0C74.5455 0 74.9899 0.215164 75.3939 0.645492C75.798 1.07582 76 1.54918 76 2.15164C76 2.71107 75.798 3.22746 75.4343 3.65779C75.0303 4.08811 74.5859 4.30328 74.0202 4.30328C73.495 4.30328 73.0101 4.08811 72.6061 3.65779C72.202 3.22746 72 2.71107 72 2.15164C72 1.54918 72.202 1.03279 72.6061 0.645492C73.0101 0.215164 73.4545 0 73.9798 0ZM75.7576 21H72.202V6.62705H75.7576V21Z" fill="black"/>
  </symbol>


</svg>
